<?xml version="1.0" encoding="utf-8"?>
<!-- Generator: Adobe Illustrator 23.0.0, SVG Export Plug-In . SVG Version: 6.00 Build 0)  -->
<svg version="1.1" id="Layer_1" xmlns="http://www.w3.org/2000/svg" xmlns:xlink="http://www.w3.org/1999/xlink" x="0px" y="0px"
	 viewBox="0 0 559.4 396.4" style="enable-background:new 0 0 559.4 396.4;" xml:space="preserve">
<style type="text/css">
	.st0{opacity:0.1;fill:#272724;}
	.st1{fill:#E9E9E9;}
	.st2{fill:#1F3B97;}
	.st3{fill:#FFFFFF;}
	.st4{fill:#009BFF;}
	.st5{fill:#C07361;}
	.st6{opacity:0.1;fill:#E9E9E9;}
	.st7{fill:#DFE8F8;}
	.st8{fill:url(#SVGID_1_);}
	.st9{fill:#294FCA;}
	.st10{fill:url(#SVGID_2_);}
	.st11{fill:url(#SVGID_3_);}
	.st12{fill:url(#SVGID_4_);}
	.st13{enable-background:new    ;}
	.st14{clip-path:url(#SVGID_6_);enable-background:new    ;}
	.st15{fill:url(#SVGID_7_);}
	.st16{fill:#D0D0D0;}
	.st17{fill:#CCCCCC;}
	.st18{fill:#C8C8C8;}
	.st19{fill:#C4C4C4;}
	.st20{fill:#BFBFBF;}
	.st21{fill:#BABABA;}
	.st22{fill:#B6B6B6;}
	.st23{fill:#B1B1B1;}
	.st24{fill:#ADADAD;}
	.st25{fill:#A8A8A8;}
	.st26{fill:#A4A4A4;}
	.st27{fill:#9F9F9F;}
	.st28{fill:#9B9B9B;}
	.st29{fill:#969696;}
	.st30{fill:#E1E1E1;}
	.st31{fill:#A3A3A3;}
	.st32{clip-path:url(#SVGID_9_);enable-background:new    ;}
	.st33{fill:url(#SVGID_10_);}
	.st34{clip-path:url(#SVGID_12_);enable-background:new    ;}
	.st35{fill:url(#SVGID_13_);}
	.st36{clip-path:url(#SVGID_15_);enable-background:new    ;}
	.st37{fill:url(#SVGID_16_);}
	.st38{clip-path:url(#SVGID_18_);enable-background:new    ;}
	.st39{fill:url(#SVGID_19_);}
	.st40{clip-path:url(#SVGID_21_);enable-background:new    ;}
	.st41{fill:url(#SVGID_22_);}
</style>
<g>
	<path class="st0" d="M494.4,155.3l-162-93.5c-8.3-4.8-18.4-4.8-26.7,0L4.6,235.6c-6.1,3.5-6.1,12.3,0,15.8l162,93.5
		c8.3,4.8,18.4,4.8,26.7,0l301.2-173.9C500.5,167.6,500.5,158.8,494.4,155.3z M379.7,169.9L189.9,279.5c-6.2,3.6-13.8,3.6-20,0
		l-50.7-29.2c-5.2-3-5.2-10.5,0-13.5l189.8-109.6c6.2-3.6,13.8-3.6,20,0l50.7,29.2C384.9,159.5,384.9,167,379.7,169.9z"/>
	<g>
		<path class="st0" d="M392,77.3c0.3,2.2-1.2,4.3-3.5,4.6c-2.2,0.3-4.3-1.2-4.6-3.5c-0.3-2.2,1.2-4.3,3.5-4.6
			C389.6,73.5,391.6,75,392,77.3z"/>
		<path class="st1" d="M415.5,44.5c0,0-4.9,9.7-7.9,15.3c-3.1,5.8-17,19.5-17,19.5l-3.2-4.1c0,0,10.5-14.6,13.4-21.4
			c2.4-5.5,5.9-13,5.9-13L415.5,44.5z"/>
		<path class="st2" d="M409.2,32.5L402,49.3c-1,2.4,0.5,5.4,3.5,6.7c3,1.3,6.2,0.3,7.2-2.1l7.2-16.8C423.1,29.7,412.3,25,409.2,32.5
			z"/>
	</g>
	<g>
		<path class="st0" d="M103.1,159.2c-0.3,2.2,1.2,4.3,3.5,4.6c2.2,0.3,4.3-1.2,4.6-3.5c0.3-2.2-1.2-4.3-3.5-4.6
			C105.5,155.3,103.4,156.9,103.1,159.2z"/>
		<path class="st1" d="M79.6,126.3c0,0,4.9,9.7,7.9,15.3c3.1,5.8,17,19.5,17,19.5l3.2-4.1c0,0-10.5-14.6-13.4-21.4
			c-2.4-5.5-5.9-13-5.9-13L79.6,126.3z"/>
		<path class="st3" d="M85.9,114.4l7.2,16.8c1,2.4-0.5,5.4-3.5,6.7c-3,1.3-6.2,0.3-7.2-2.1L75.2,119C72,111.6,82.8,106.9,85.9,114.4
			z"/>
	</g>
	<g>
		<path class="st2" d="M56,93.9c0,9.7,0.8,12.6-2.8,19.3c-3.6,6.7-6.6,20.8,10.7,20.8c17.3,0,18.1-24.9,15.6-35.7
			C77.1,87.4,56,93.9,56,93.9z"/>
		<g>
			<polygon class="st2" points="44.8,133.1 69.8,118.7 74,121.1 49.1,135.6 			"/>
			<polygon class="st0" points="74,121.1 74,156.7 49.1,171.1 49.1,135.6 			"/>
			<polygon class="st4" points="97.7,170.3 97.7,175.9 72.8,190.3 72.8,184.7 			"/>
			<polygon class="st3" points="74,156.7 97.7,170.3 72.8,184.7 49.1,171.1 			"/>
			<polygon class="st2" points="49.1,135.6 44.8,133.1 44.8,174.1 72.8,190.3 72.8,184.7 49.1,171.1 			"/>
		</g>
		<path class="st2" d="M75.8,178.6L75.8,178.6c-8.3,0.8-15.6-5.4-16.4-13.6l-1-11.2l30-2.7l1,11.2C90.2,170.5,84.1,177.8,75.8,178.6
			z"/>
		<path class="st4" d="M89,155.8c0.5,5.9-6.9,10.4-16,10.9c-9,0.5-16.3-4.2-16.8-9l0,0l-2.1-32.2l0,0l0,0c-0.5-9,6.3-16.8,15.4-17.4
			c9-0.5,16.8,6.3,17.4,15.4l0,0l0,0L89,155.8z"/>
		<path class="st3" d="M63.4,113.1c0,2.6,3.8,4.7,8.4,4.7s8.5-2,8.5-4.5c0-2.6-3.8-4.7-8.4-4.7C67.2,108.5,63.4,110.5,63.4,113.1z"
			/>
		<g>
			<path class="st1" d="M82.6,91.8c1.3,6.1-2.6,12.2-8.7,13.5c-6.1,1.3-12.2-2.6-13.5-8.7C59,90.5,63,84.4,69.1,83.1
				C75.2,81.8,81.3,85.7,82.6,91.8z"/>
			<path class="st1" d="M67,101.3l-0.1,10.9c0,1.6,2.1,2.9,4.7,2.9c2.6,0,4.8-1.2,4.8-2.8l0.1-10.9L67,101.3z"/>
			<path class="st0" d="M61.8,97.5c0.4,1.6,1.6,2.7,2.6,2.4c1.1-0.3,1.6-1.8,1.2-3.4c-0.4-1.6-1.6-2.7-2.6-2.4
				C62,94.4,61.4,95.9,61.8,97.5z"/>
		</g>
		<path class="st2" d="M67.7,91.8c0,0,15.2,3.2,15.2-2.2c0-5.4-5.1-10.8-11.7-10.8c-6.6,0-15.1,4.3-15.1,15.1
			C56,104.7,64.2,106.8,67.7,91.8z"/>
		<g>
			<path class="st0" d="M66.7,97.9c0.5,1.6,0.1,3.1-0.9,3.4c-1,0.3-2.3-0.7-2.8-2.2c-0.5-1.6-0.1-3.1,0.9-3.4
				C64.9,95.4,66.2,96.4,66.7,97.9z"/>
			<path class="st5" d="M65.8,98.2c0.3,0.8,0,1.6-0.5,1.8c-0.5,0.2-1.2-0.3-1.4-1.1c-0.3-0.8,0-1.6,0.5-1.8
				C64.9,96.9,65.5,97.4,65.8,98.2z"/>
		</g>
	</g>
	<g>
		<g>
			<polygon class="st3" points="452.3,52.4 427.4,38 423.1,40.5 448,54.9 			"/>
			<polygon class="st4" points="423.1,40.5 423.1,76 448,90.4 448,54.9 			"/>
			<polygon class="st4" points="399.4,89.7 399.4,95.2 424.3,109.6 424.3,104.1 			"/>
			<polygon class="st4" points="423.1,76 399.4,89.7 424.3,104.1 448,90.4 			"/>
			<polygon class="st2" points="448,54.9 452.3,52.4 452.3,93.5 424.3,109.6 424.3,104.1 448,90.4 			"/>
		</g>
		<path class="st2" d="M421.3,97.9L421.3,97.9c8.3,0.8,15.6-5.4,16.4-13.6l1-11.2l-30-2.7l-1,11.2C406.9,89.8,413.1,97.1,421.3,97.9
			z"/>
		<path class="st3" d="M407.1,74.5c-0.5,5.9,6.9,10.4,16,10.9c9,0.5,16.3-4.2,16.8-9l0,0l2.1-32.2l0,0l0,0c0.5-9-6.3-16.8-15.4-17.4
			c-9-0.5-16.8,6.3-17.4,15.4l0,0l0,0L407.1,74.5z"/>
		<path class="st3" d="M433.8,32.4c0,2.6-3.8,4.7-8.4,4.7c-4.7,0-8.5-2-8.5-4.5c0-2.6,3.8-4.7,8.4-4.7
			C429.9,27.8,433.8,29.9,433.8,32.4z"/>
		<g>
			<path class="st1" d="M414.6,11.2c-1.3,6.1,2.6,12.2,8.7,13.5c6.1,1.3,12.2-2.6,13.5-8.7c1.3-6.1-2.6-12.2-8.7-13.5
				C421.9,1.1,415.9,5.1,414.6,11.2z"/>
			<path class="st1" d="M430.1,20.6l0.1,10.9c0,1.6-2.1,2.9-4.7,2.9c-2.6,0-4.8-1.2-4.8-2.8l-0.1-10.9L430.1,20.6z"/>
			<path class="st0" d="M435.3,16.9c-0.4,1.6-1.6,2.7-2.6,2.4c-1.1-0.3-1.6-1.8-1.2-3.4c0.4-1.6,1.6-2.7,2.6-2.4
				C435.2,13.8,435.7,15.3,435.3,16.9z"/>
			<path class="st2" d="M433.1,20.5c0.6,0.4,1.7-0.1,2.4-0.7c0.4-0.4,0.7-0.8,0.9-1.4c0.6-1.2,1.2-2.8,1.3-3.4
				c1.5-6.6-2.7-13.2-9.3-14.7c-6.1-1.4-12.5,2.6-14,7.2c-1.6,4.7,8,10.2,16.8,4.7c0,0,1.3,2.4,1.2,3.8
				C432.5,17.4,432.2,19.9,433.1,20.5z"/>
			<g>
				<path class="st0" d="M434.7,17.4c-0.4,1.6-1.6,2.6-2.7,2.4c-1.1-0.3-1.6-1.8-1.1-3.4c0.4-1.6,1.6-2.6,2.7-2.4
					C434.6,14.3,435.1,15.8,434.7,17.4z"/>
				<path class="st5" d="M433.7,17.1c-0.2,0.8-0.8,1.4-1.4,1.2c-0.5-0.1-0.8-0.9-0.6-1.7c0.2-0.8,0.8-1.4,1.4-1.2
					C433.7,15.5,433.9,16.3,433.7,17.1z"/>
			</g>
		</g>
	</g>
	<g>
		<ellipse class="st0" cx="286.9" cy="332.3" rx="28.9" ry="15.8"/>
		<path class="st2" d="M269,306.2l-8.9-6c-2-1.3-4.7-0.8-6,1.2c-1.3,2-0.8,4.7,1.2,6l8.9,6c2,1.3,4.7,0.8,6-1.2
			C271.5,310.2,271,307.6,269,306.2z"/>
		<g>
			<path class="st2" d="M302.8,317.6l-34.5,19.9c-1.5,0.9-2.1,2.9-1.2,4.4c0.9,1.5,2.9,2.1,4.4,1.2l34.5-19.9
				c1.5-0.9,2.1-2.9,1.2-4.4C306.3,317.2,304.3,316.7,302.8,317.6z"/>
			<path class="st2" d="M272.6,317.9l33.3,19.2c1.5,0.9,2.1,2.9,1.2,4.4c-0.9,1.5-2.9,2.1-4.4,1.2l-33.3-19.2
				c-1.5-0.9-2.1-2.9-1.2-4.4C269.1,317.6,271.1,317,272.6,317.9z"/>
			<path class="st2" d="M287.2,309.5c-2.5,0-4.6,1.3-4.6,2.8v17.2c0,1.6,2,2.8,4.6,2.8s4.6-1.3,4.6-2.8v-17.2
				C291.7,310.8,289.7,309.5,287.2,309.5z"/>
		</g>
		<g>
			<path class="st4" d="M294.5,293.2c0,0-17.8-14.8-20-6.7c-2.8,10-4.7,22.5-4.7,22.5c0,4.4-5.7,3.6-6.4,1.3c0,0-1.6-21.2,1.4-32.4
				c4.4-16.4,33.8,5.1,33.8,5.1L294.5,293.2z"/>
		</g>
		<g>
			<polygon class="st2" points="285.6,283 309.3,296.7 284.4,311.1 260.7,297.4 			"/>
			<polygon class="st2" points="284.4,311.1 260.7,297.4 260.7,302.3 284.4,316 			"/>
		</g>
		<path class="st2" d="M249.6,315.8l-8.9-6c-2-1.3-4.7-0.8-6,1.2c-1.3,2-0.8,4.7,1.2,6l8.9,6c2,1.3,4.7,0.8,6-1.2
			C252.1,319.8,251.6,317.1,249.6,315.8z"/>
		<g>
			<path class="st4" d="M275.4,301.9c0,0-18.2-14.8-20.4-6.7c-2.8,10-4.7,22.5-4.7,22.5c0,4.4-5.7,3.6-6.4,1.3
				c0,0-1.6-21.2,1.4-32.4c4.4-16.4,39.6-0.9,39.6-0.9L275.4,301.9z"/>
		</g>
		<path class="st4" d="M282.8,304.7L282.8,304.7c8.3,0.8,15.6-5.4,16.4-13.6l1-11.2l-30-2.7l-1,11.2
			C268.4,296.6,274.5,303.9,282.8,304.7z"/>
	</g>
	<g>
		<ellipse class="st0" cx="73.8" cy="336.8" rx="26.9" ry="15.8"/>
		<g>
			<path class="st2" d="M58.6,322.6l34.5,19.9c1.5,0.9,2.1,2.9,1.2,4.4c-0.9,1.5-2.9,2.1-4.4,1.2l-34.5-19.9
				c-1.5-0.9-2.1-2.9-1.2-4.4C55.1,322.2,57.1,321.7,58.6,322.6z"/>
			<path class="st2" d="M88.8,322.9l-33.3,19.2c-1.5,0.9-2.1,2.9-1.2,4.4c0.9,1.5,2.9,2.1,4.4,1.2L92,328.5c1.5-0.9,2.1-2.9,1.2-4.4
				C92.3,322.5,90.3,322,88.8,322.9z"/>
			<path class="st2" d="M74.2,314.5c2.5,0,4.6,1.3,4.6,2.8v17.2c0,1.6-2,2.8-4.6,2.8c-2.5,0-4.6-1.3-4.6-2.8v-17.2
				C69.7,315.7,71.7,314.5,74.2,314.5z"/>
		</g>
		<g>
			<path class="st2" d="M66.9,298.2c0,0,17.8-14.8,20-6.7c2.8,10,4.7,22.5,4.7,22.5c0,4.4,5.7,3.6,6.4,1.3c0,0,1.6-21.2-1.4-32.4
				c-4.4-16.4-33.8,5.1-33.8,5.1L66.9,298.2z"/>
		</g>
		<g>
			<polygon class="st2" points="75.8,288 52.1,301.7 77,316.1 100.7,302.4 			"/>
			<polygon class="st2" points="77,316.1 100.7,302.4 100.7,307.3 77,321 			"/>
		</g>
		<path class="st2" d="M92.4,311.2l8.9-6c2-1.3,4.7-0.8,6,1.2c1.3,2,0.8,4.7-1.2,6l-8.9,6c-2,1.3-4.7,0.8-6-1.2
			C89.9,315.2,90.4,312.5,92.4,311.2z"/>
		<path class="st2" d="M111.8,320.8l8.9-6c2-1.3,4.7-0.8,6,1.2c1.3,2,0.8,4.7-1.2,6l-8.9,6c-2,1.3-4.7,0.8-6-1.2
			C109.3,324.8,109.8,322.1,111.8,320.8z"/>
		<g>
			<path class="st2" d="M86.4,306.9c0,0,17.8-14.8,20-6.7c2.8,10,4.7,22.5,4.7,22.5c0,4.4,5.7,3.6,6.4,1.3c0,0,1.6-21.2-1.4-32.4
				c-4.4-16.4-39.6-0.9-39.6-0.9L86.4,306.9z"/>
		</g>
		<path class="st4" d="M78.6,309.6L78.6,309.6c-8.3,0.8-15.6-5.4-16.4-13.6l-1-11.2l30-2.7l1,11.2C93,301.5,86.9,308.9,78.6,309.6z"
			/>
	</g>
	<path class="st4" d="M494.4,129.7l-162-93.5c-8.3-4.8-18.4-4.8-26.7,0L4.6,210c-6.1,3.5-6.1,12.3,0,15.8l162,93.5
		c8.3,4.8,18.4,4.8,26.7,0l301.2-173.9C500.5,142,500.5,133.2,494.4,129.7z M379.7,144.3L189.9,253.9c-6.2,3.6-13.8,3.6-20,0
		l-50.7-29.2c-5.2-3-5.2-10.5,0-13.5l189.8-109.6c6.2-3.6,13.8-3.6,20,0l50.7,29.2C384.9,133.8,384.9,141.3,379.7,144.3z"/>
	<path class="st3" d="M494.4,124.5l-162-93.5c-8.3-4.8-18.4-4.8-26.7,0L4.6,204.8c-6.1,3.5-6.1,12.3,0,15.8l162,93.5
		c8.3,4.8,18.4,4.8,26.7,0l301.2-173.9C500.5,136.7,500.5,128,494.4,124.5z M379.7,139.1L189.9,248.7c-6.2,3.6-13.8,3.6-20,0
		l-50.7-29.2c-5.2-3-5.2-10.5,0-13.5L309.1,96.4c6.2-3.6,13.8-3.6,20,0l50.7,29.2C384.9,128.6,384.9,136.1,379.7,139.1z"/>
	<g>
		<g>
			<path class="st2" d="M391,70.6l31.6,18.2c1.3,0.7,1.3,2.6,0,3.3l-9.2,5.3c-1.7,1-3.8,1-5.5,0l-31.6-18.2c-1.3-0.7-1.3-2.6,0-3.3
				l9.2-5.3C387.2,69.6,389.3,69.6,391,70.6z"/>
		</g>
	</g>
	<g>
		<g>
			<path class="st2" d="M257.6,247.9L226,266.2c-1.3,0.7-1.3,2.6,0,3.3l9.2,5.3c1.7,1,3.8,1,5.5,0l31.6-18.2c1.3-0.7,1.3-2.6,0-3.3
				l-9.2-5.3C261.4,247,259.3,247,257.6,247.9z"/>
		</g>
	</g>
	<g>
		<g>
			<path class="st4" d="M350.8,30.5l45.1,26c2.2,1.3,3.5,3.6,3.5,6.1V96c0,2.4-2.6,4-4.8,2.8l-45.1-26c-2.2-1.3-3.5-3.6-3.5-6.1
				V33.2C346,30.8,348.7,29.3,350.8,30.5z"/>
		</g>
		<g>
			<path class="st6" d="M349.1,31.5l45.1,26c2.2,1.3,3.5,3.6,3.5,6.1V97c0,2.4-2.6,4-4.8,2.8l-45.1-26c-2.2-1.3-3.5-3.6-3.5-6.1
				V34.2C344.3,31.8,347,30.2,349.1,31.5z"/>
		</g>
		<g>
			<polygon class="st0" points="370.9,88.3 380.2,93.7 371.1,98.9 361.8,93.5 			"/>
			<polygon class="st7" points="361.8,93.5 371.1,98.9 371.1,100.6 361.8,95.2 			"/>
			<polygon class="st4" points="369.7,101.5 369.7,74.5 371.1,73.7 371.1,98.9 380.2,93.7 380.2,95.4 			"/>
			<polygon class="st4" points="361.8,68.3 371.1,73.7 369.7,74.5 360.3,69.1 			"/>
			<polygon class="st1" points="360.3,69.1 369.7,74.5 369.7,101.5 360.3,96.1 			"/>
		</g>
	</g>
	<g>
		<g>
			<polygon class="st0" points="127.7,252.5 137,257.9 127.7,263.3 118.3,257.9 			"/>
			<polygon class="st4" points="137,257.9 137,232.7 138.5,231.8 138.5,258.8 127.7,265 127.7,263.3 			"/>
			<polygon class="st2" points="129.1,226.4 138.5,231.8 137,232.7 127.7,227.3 			"/>
			<polygon class="st1" points="127.7,227.3 137,232.7 137,257.9 127.7,252.5 			"/>
			<polygon class="st0" points="118.3,257.9 118.3,259.6 127.7,265 127.7,263.3 			"/>
		</g>
		<g>
			<path class="st4" d="M111.2,188.6l45.1,26c2.2,1.3,3.5,3.6,3.5,6.1v33.4c0,2.4-2.6,4-4.8,2.8l-45.1-26c-2.2-1.3-3.5-3.6-3.5-6.1
				v-33.4C106.5,188.9,109.1,187.4,111.2,188.6z"/>
		</g>
		<g>
			<path class="st2" d="M158.2,221.7c0-2.5-1.3-4.8-3.5-6.1l-45.1-26c-2.1-1.2-4.8,0.3-4.8,2.8v29.8l53.4,30.8V221.7z"/>
			<path class="st1" d="M108.3,231.8l45.1,26c2.1,1.2,4.8-0.3,4.8-2.8V253l-53.4-30.8v3.5C104.8,228.2,106.1,230.5,108.3,231.8z"/>
		</g>
		<g>
			<path class="st4" d="M120.3,203.8l21.8,12.6c1.1,0.6,1.7,1.7,1.7,2.9v16.2c0,1.2-1.3,1.9-2.3,1.3l-21.8-12.6
				c-1.1-0.6-1.7-1.7-1.7-2.9v-16.2C118,203.9,119.3,203.2,120.3,203.8z"/>
		</g>
	</g>
	<g>
		<g>
			<polygon class="st0" points="232.2,247 222.8,252.4 232.2,257.8 241.5,252.4 			"/>
			<polygon class="st4" points="222.8,252.4 222.8,227.1 221.4,226.3 221.4,253.2 232.2,259.5 232.2,257.8 			"/>
			<polygon class="st2" points="230.7,220.9 221.4,226.3 222.8,227.1 232.2,221.7 			"/>
			<polygon class="st1" points="232.2,221.7 222.8,227.1 222.8,252.4 232.2,247 			"/>
			<polygon class="st0" points="241.5,252.4 241.5,254.1 232.2,259.5 232.2,257.8 			"/>
		</g>
		<g>
			<path class="st4" d="M248.6,183.1l-45.1,26c-2.2,1.3-3.5,3.6-3.5,6.1v33.4c0,2.4,2.6,4,4.8,2.8l45.1-26c2.2-1.3,3.5-3.6,3.5-6.1
				v-33.4C253.4,183.4,250.7,181.9,248.6,183.1z"/>
		</g>
		<g>
			<path class="st2" d="M201.7,216.2c0-2.5,1.3-4.8,3.5-6.1l45.1-26c2.1-1.2,4.8,0.3,4.8,2.8v29.8l-53.4,30.8V216.2z"/>
			<path class="st1" d="M251.5,226.3l-45.1,26c-2.1,1.2-4.8-0.3-4.8-2.8v-2.1l53.4-30.8v3.5C255.1,222.7,253.7,225,251.5,226.3z"/>
		</g>
		<g>
			<linearGradient id="SVGID_1_" gradientUnits="userSpaceOnUse" x1="224.7656" y1="217.9236" x2="241.1219" y2="217.9236">
				<stop  offset="0.4072" style="stop-color:#FFFFFF"/>
				<stop  offset="0.6598" style="stop-color:#C8CFE4"/>
			</linearGradient>
			<path class="st8" d="M239.7,207.5l-13.8,8c-0.7,0.4-1.1,1.1-1.1,1.9v10.2c0,0.7,0.8,1.2,1.5,0.8l13.8-8c0.7-0.4,1.1-1.1,1.1-1.9
				v-10.2C241.1,207.6,240.3,207.1,239.7,207.5z"/>
		</g>
		<g>
			<path class="st3" d="M232.9,202.3l-20.6,11.9c-1,0.6-1.6,1.6-1.6,2.8v15.2c0,1.1,1.2,1.8,2.2,1.3l20.6-11.9
				c1-0.6,1.6-1.6,1.6-2.8v-15.2C235,202.5,233.8,201.8,232.9,202.3z"/>
		</g>
	</g>
	<g>
		<g>
			<path class="st2" d="M111.5,150.4L80,168.6c-1.3,0.7-1.3,2.6,0,3.3l9.2,5.3c1.7,1,3.8,1,5.5,0l31.6-18.2c1.3-0.7,1.3-2.6,0-3.3
				l-9.2-5.3C115.3,149.4,113.2,149.4,111.5,150.4z"/>
		</g>
	</g>
	<g>
		<g>
			<path class="st1" d="M152.8,111.6l-45.1,26c-2.2,1.3-3.5,3.6-3.5,6.1v33.4c0,2.4,2.6,4,4.8,2.8l45.1-26c2.2-1.3,3.5-3.6,3.5-6.1
				v-33.4C157.6,111.9,155,110.4,152.8,111.6z"/>
		</g>
		<g>
			<path class="st4" d="M154.5,112.6l-45.1,26c-2.2,1.3-3.5,3.6-3.5,6.1v33.4c0,2.4,2.6,4,4.8,2.8l45.1-26c2.2-1.3,3.5-3.6,3.5-6.1
				v-33.4C159.3,112.9,156.7,111.4,154.5,112.6z"/>
		</g>
		<g>
			<polygon class="st0" points="132.7,169.4 123.4,174.8 132.5,180.1 141.8,174.7 			"/>
			<polygon class="st7" points="141.8,174.7 132.5,180.1 132.5,181.8 141.8,176.4 			"/>
			<polygon class="st0" points="134,182.6 134,155.7 132.5,154.8 132.5,180.1 123.4,174.8 123.4,176.5 			"/>
			<polygon class="st3" points="141.8,149.4 132.5,154.8 134,155.7 143.3,150.3 			"/>
			<polygon class="st4" points="143.3,150.3 134,155.7 134,182.6 143.3,177.2 			"/>
		</g>
	</g>
	<g>
		<g>
			<path class="st2" d="M233.9,79.4l-31.6,18.2c-1.3,0.7-1.3,2.6,0,3.3l9.2,5.3c1.7,1,3.8,1,5.5,0l31.6-18.2c1.3-0.7,1.3-2.6,0-3.3
				l-9.2-5.3C237.7,78.5,235.6,78.5,233.9,79.4z"/>
		</g>
	</g>
	<g>
		<g>
			<path class="st6" d="M275.2,40.7l-45.1,26c-2.2,1.3-3.5,3.6-3.5,6.1v33.4c0,2.4,2.6,4,4.8,2.8l45.1-26c2.2-1.3,3.5-3.6,3.5-6.1
				V43.5C280,41,277.4,39.5,275.2,40.7z"/>
		</g>
		<g>
			<path class="st4" d="M276.9,41.7l-45.1,26c-2.2,1.3-3.5,3.6-3.5,6.1v33.4c0,2.4,2.6,4,4.8,2.8l45.1-26c2.2-1.3,3.5-3.6,3.5-6.1
				V44.4C281.7,42,279,40.5,276.9,41.7z"/>
		</g>
		<g>
			<polygon class="st0" points="255.1,98.5 245.8,103.9 254.9,109.1 264.2,103.7 			"/>
			<polygon class="st7" points="264.2,103.7 254.9,109.1 254.9,110.9 264.2,105.5 			"/>
			<polygon class="st0" points="256.4,111.7 256.4,84.8 254.9,83.9 254.9,109.1 245.8,103.9 245.8,105.6 			"/>
			<polygon class="st3" points="264.2,78.5 254.9,83.9 256.4,84.8 265.7,79.4 			"/>
			<polygon class="st4" points="265.7,79.4 256.4,84.8 256.4,111.7 265.7,106.3 			"/>
		</g>
	</g>
	<g>
		<path class="st1" d="M89.1,168.8c0.4,2.2,2.6,3.7,4.8,3.3c2.2-0.4,3.7-2.6,3.3-4.8c-0.4-2.2-2.6-3.7-4.8-3.3
			C90.2,164.5,88.7,166.6,89.1,168.8z"/>
		<path class="st1" d="M58.5,135.4c0,0,2.3,12.1,6.3,17.1c4,5,26.3,17.9,26.3,17.9l1.7-5c0,0-18.7-13.1-21.2-18.5
			c-2.6-5.4-3.8-13.8-3.8-13.8L58.5,135.4z"/>
		<path class="st3" d="M66.6,124.5l4.5,17.8c0.6,2.6-1.4,5.3-4.5,6c-3.1,0.8-6.2-0.6-6.8-3.2l-4.5-17.8
			C53.3,119.6,64.7,116.6,66.6,124.5z"/>
	</g>
	<g>
		<path class="st1" d="M407.9,91.1c-0.4,2.2-2.6,3.7-4.8,3.3c-2.2-0.4-3.7-2.6-3.3-4.8c0.4-2.2,2.6-3.7,4.8-3.3
			C406.9,86.7,408.3,88.9,407.9,91.1z"/>
		<path class="st1" d="M438.5,57.6c0,0-2.3,12.1-6.3,17.1c-4,5-26.3,17.9-26.3,17.9l-1.7-5c0,0,18.7-13.1,21.2-18.5
			c2.6-5.4,3.8-13.8,3.8-13.8L438.5,57.6z"/>
		<path class="st2" d="M430.4,46.8l-4.5,17.8c-0.6,2.6,1.4,5.3,4.5,6c3.1,0.8,6.2-0.6,6.8-3.2l4.5-17.8
			C443.7,41.8,432.3,38.9,430.4,46.8z"/>
	</g>
	<g>
		<g>
			<path class="st1" d="M260.8,259.3c-2,1-4.5,0.1-5.5-1.9c-1-2-0.1-4.5,1.9-5.5c2-1,4.5-0.1,5.5,1.9
				C263.7,255.8,262.9,258.3,260.8,259.3z"/>
			<path class="st1" d="M295.5,253.5c0,0-5.7,15.6-13.8,17.3c-6.5,1.4-23.2-12.3-23.2-12.3l3-4.3c0,0,13.6,10.2,19.1,6.6
				c5-3.2,6.2-11,6.2-11L295.5,253.5z"/>
			<path class="st2" d="M289.1,241.5l-7.2,16.8c-1,2.4,0.5,5.4,3.5,6.7c3,1.3,6.2,0.3,7.2-2.1l7.2-16.8
				C303,238.7,292.3,234.1,289.1,241.5z"/>
		</g>
		<path class="st9" d="M268.5,281.3c-0.5,5.9,6.9,10.4,16,10.9c9,0.5,16.3-4.2,16.8-9l0,0l2.1-32.2l0,0l0,0
			c0.5-9-6.3-16.8-15.4-17.4c-9-0.5-16.8,6.3-17.4,15.4l0,0l0,0L268.5,281.3z"/>
		<path class="st3" d="M295.3,239.2c0,2.6-3.8,4.7-8.4,4.7c-4.7,0-8.5-2-8.5-4.5c0-2.6,3.8-4.7,8.4-4.7
			C291.4,234.6,295.2,236.6,295.3,239.2z"/>
		<g>
			<path class="st1" d="M276,217.9c-1.3,6.1,2.6,12.2,8.7,13.5c6.1,1.3,12.2-2.6,13.5-8.7c1.3-6.1-2.6-12.2-8.7-13.5
				C283.4,207.9,277.4,211.8,276,217.9z"/>
			<path class="st1" d="M291.6,227.4l0.1,10.9c0,1.6-2.1,2.9-4.7,2.9c-2.6,0-4.8-1.2-4.8-2.8l-0.1-10.9L291.6,227.4z"/>
			<path class="st2" d="M281.5,215.1c1.9,2.4-0.4,5.3,0.5,8c1.3,3.9,9.2,7.4,14.6,4.1c5.3-3.2,4.5-10.7,4.4-11.7
				c-0.1-1-0.8-6.2-5.3-9.4c-5.9-4.2-15.2-2.2-17,1.7c-0.5,1.2-0.7,3.2,0.1,4.8C279.6,214,280.6,213.9,281.5,215.1z"/>
			<g>
				<path class="st0" d="M283.8,222.4c0.6,1.5,0.3,3.1-0.7,3.5c-1,0.4-2.3-0.5-3-2c-0.6-1.5-0.3-3.1,0.7-3.5
					C281.8,220,283.2,220.9,283.8,222.4z"/>
				<path class="st5" d="M282.9,222.7c0.3,0.8,0.2,1.6-0.3,1.8c-0.5,0.2-1.2-0.2-1.5-1s-0.2-1.6,0.3-1.8
					C281.9,221.5,282.6,222,282.9,222.7z"/>
			</g>
		</g>
		<g>
			<polygon class="st2" points="284.4,268.7 284.4,316 288.7,318.5 288.7,271.2 			"/>
			<polygon class="st3" points="284.4,268.7 309.3,254.3 313.6,256.8 288.7,271.2 			"/>
			<polygon class="st4" points="313.6,256.8 313.6,304.1 288.7,318.5 288.7,271.2 			"/>
		</g>
		<g>
			<path class="st1" d="M238,272c-2,1-4.5,0.1-5.5-1.9c-1-2-0.1-4.5,1.9-5.5c2-1,4.5-0.1,5.5,1.9C240.9,268.5,240.1,271,238,272z"/>
			<path class="st1" d="M276.2,260.8c0,0-3.9,16.5-13.1,19c-6.4,1.7-27.5-8.5-27.5-8.5l3-4.3c0,0,19.3,6.8,23.3,1.6
				c4-5.1,5.5-11.4,5.5-11.4L276.2,260.8z"/>
			<path class="st9" d="M269.9,248.9l-7.2,16.8c-1,2.4,0.5,5.4,3.5,6.7c3,1.3,6.2,0.3,7.2-2.1l7.2-16.8
				C283.8,246,273,241.4,269.9,248.9z"/>
		</g>
	</g>
	<g>
		<ellipse class="st0" cx="421.9" cy="260.4" rx="28.9" ry="15.8"/>
		<path class="st2" d="M403.7,234.2l-8.9-6c-2-1.3-4.7-0.8-6,1.2c-1.3,2-0.8,4.7,1.2,6l8.9,6c2,1.3,4.7,0.8,6-1.2
			C406.2,238.2,405.7,235.5,403.7,234.2z"/>
		<g>
			<path class="st2" d="M437.5,245.5L403,265.4c-1.5,0.9-2.1,2.9-1.2,4.4c0.9,1.5,2.9,2.1,4.4,1.2l34.5-19.9
				c1.5-0.9,2.1-2.9,1.2-4.4C441,245.1,439,244.6,437.5,245.5z"/>
			<path class="st2" d="M407.3,245.9l33.3,19.2c1.5,0.9,2.1,2.9,1.2,4.4c-0.9,1.5-2.9,2.1-4.4,1.2l-33.3-19.2
				c-1.5-0.9-2.1-2.9-1.2-4.4C403.8,245.5,405.8,245,407.3,245.9z"/>
			<path class="st2" d="M421.9,237.4c-2.5,0-4.6,1.3-4.6,2.8v17.2c0,1.6,2,2.8,4.6,2.8s4.6-1.3,4.6-2.8v-17.2
				C426.4,238.7,424.4,237.4,421.9,237.4z"/>
		</g>
		<g>
			<path class="st4" d="M429.2,221.2c0,0-17.8-14.8-20-6.7c-2.8,10-4.7,22.5-4.7,22.5c0,4.4-5.7,3.6-6.4,1.3c0,0-1.6-21.2,1.4-32.4
				c4.4-16.4,33.8,5.1,33.8,5.1L429.2,221.2z"/>
		</g>
		<g>
			<polygon class="st2" points="420.3,210.9 444,224.6 419.1,239 395.4,225.3 			"/>
			<polygon class="st2" points="419.1,239 395.4,225.3 395.4,230.3 419.1,243.9 			"/>
		</g>
		<path class="st2" d="M384.3,243.7l-8.9-6c-2-1.3-4.7-0.8-6,1.2c-1.3,2-0.8,4.7,1.2,6l8.9,6c2,1.3,4.7,0.8,6-1.2
			C386.8,247.8,386.3,245.1,384.3,243.7z"/>
		<g>
			<path class="st4" d="M409.7,229.8c0,0-17.8-14.8-20-6.7c-2.8,10-4.7,22.5-4.7,22.5c0,4.4-5.7,3.6-6.4,1.3c0,0-1.6-21.2,1.4-32.4
				c4.4-16.4,39.6-0.9,39.6-0.9L409.7,229.8z"/>
		</g>
		<path class="st4" d="M417.5,232.6L417.5,232.6c8.3,0.8,15.6-5.4,16.4-13.6l1-11.2l-30-2.7l-1,11.2
			C403.1,224.5,409.2,231.8,417.5,232.6z"/>
	</g>
	<g>
		<g>
			<path class="st2" d="M392.3,175.9l-31.6,18.2c-1.3,0.7-1.3,2.6,0,3.3l9.2,5.3c1.7,1,3.8,1,5.5,0l31.6-18.2c1.3-0.7,1.3-2.6,0-3.3
				l-9.2-5.3C396.1,174.9,394,174.9,392.3,175.9z"/>
		</g>
	</g>
	<g>
		<g>
			<polygon class="st0" points="366.9,174.9 357.6,180.3 366.9,185.7 376.3,180.3 			"/>
			<polygon class="st4" points="357.6,180.3 357.6,155.1 356.1,154.2 356.1,181.2 366.9,187.4 366.9,185.7 			"/>
			<polygon class="st2" points="365.4,148.8 356.1,154.2 357.6,155.1 366.9,149.7 			"/>
			<polygon class="st0" points="366.9,149.7 357.6,155.1 357.6,180.3 366.9,174.9 			"/>
			<polygon class="st0" points="376.3,180.3 376.3,182 366.9,187.4 366.9,185.7 			"/>
		</g>
		<g>
			<path class="st4" d="M383.3,111l-45.1,26c-2.2,1.3-3.5,3.6-3.5,6.1v33.4c0,2.4,2.6,4,4.8,2.8l45.1-26c2.2-1.3,3.5-3.6,3.5-6.1
				v-33.4C388.1,111.3,385.4,109.8,383.3,111z"/>
		</g>
		<g>
			<path class="st2" d="M336.4,144.1c0-2.5,1.3-4.8,3.5-6.1l45.1-26c2.1-1.2,4.8,0.3,4.8,2.8v29.8l-53.4,30.8V144.1z"/>
			<path class="st1" d="M386.3,154.2l-45.1,26c-2.1,1.2-4.8-0.3-4.8-2.8v-2.1l53.4-30.8v3.5C389.8,150.6,388.4,153,386.3,154.2z"/>
		</g>
		<g>
			<linearGradient id="SVGID_2_" gradientUnits="userSpaceOnUse" x1="359.4803" y1="145.8611" x2="375.8367" y2="145.8611">
				<stop  offset="0.4072" style="stop-color:#FFFFFF"/>
				<stop  offset="0.6598" style="stop-color:#C8CFE4"/>
			</linearGradient>
			<path class="st10" d="M374.4,135.4l-13.8,8c-0.7,0.4-1.1,1.1-1.1,1.9v10.2c0,0.7,0.8,1.2,1.5,0.8l13.8-8c0.7-0.4,1.1-1.1,1.1-1.9
				v-10.2C375.8,135.5,375,135,374.4,135.4z"/>
		</g>
	</g>
	<g>
		<g>
			<path class="st1" d="M395.5,187.2c-2,1-4.5,0.1-5.5-1.9c-1-2-0.1-4.5,1.9-5.5c2-1,4.5-0.1,5.5,1.9
				C398.4,183.8,397.6,186.2,395.5,187.2z"/>
			<path class="st1" d="M430.2,181.4c0,0-5.7,15.6-13.8,17.3c-6.5,1.4-23.2-12.3-23.2-12.3l3-4.3c0,0,13.6,10.2,19.1,6.6
				c5-3.2,6.2-11,6.2-11L430.2,181.4z"/>
			<path class="st2" d="M423.9,169.5l-7.2,16.8c-1,2.4,0.5,5.4,3.5,6.7c3,1.3,6.2,0.3,7.2-2.1l7.2-16.8
				C437.8,166.7,427,162,423.9,169.5z"/>
		</g>
		<path class="st2" d="M403.3,209.2c-0.5,5.9,6.9,10.4,16,10.9c9,0.5,16.3-4.2,16.8-9l0,0l2.1-32.2l0,0l0,0
			c0.5-9-6.3-16.8-15.4-17.4s-16.8,6.3-17.4,15.4l0,0l0,0L403.3,209.2z"/>
		<path class="st3" d="M430,167.1c0,2.6-3.8,4.7-8.4,4.7c-4.7,0-8.5-2-8.5-4.5c0-2.6,3.8-4.7,8.4-4.7
			C426.1,162.5,429.9,164.6,430,167.1z"/>
		<path class="st1" d="M410.8,145.9c-1.3,6.1,2.6,12.2,8.7,13.5c6.1,1.3,12.2-2.6,13.5-8.7c1.3-6.1-2.6-12.2-8.7-13.5
			C418.1,135.8,412.1,139.7,410.8,145.9z"/>
		<path class="st1" d="M426.3,155.3l0.1,10.9c0,1.6-2.1,2.9-4.7,2.9c-2.6,0-4.8-1.2-4.8-2.8l-0.1-10.9L426.3,155.3z"/>
		<g>
			<polygon class="st2" points="419.1,196.7 419.1,243.9 423.4,246.4 423.4,199.2 			"/>
			<polygon class="st3" points="419.1,196.7 444,182.3 448.3,184.7 423.4,199.2 			"/>
			<polygon class="st4" points="448.3,184.7 448.3,232 423.4,246.4 423.4,199.2 			"/>
		</g>
		<g>
			<path class="st1" d="M372.7,199.9c-2,1-4.5,0.1-5.5-1.9c-1-2-0.1-4.5,1.9-5.5c2-1,4.5-0.1,5.5,1.9
				C375.6,196.5,374.8,198.9,372.7,199.9z"/>
			<path class="st1" d="M410.9,188.8c0,0-3.9,16.5-13.1,19c-6.4,1.7-27.5-8.5-27.5-8.5l3-4.3c0,0,19.3,6.8,23.3,1.6
				c4-5.1,5.5-11.4,5.5-11.4L410.9,188.8z"/>
			<path class="st2" d="M404.6,176.8l-7.2,16.8c-1,2.4,0.5,5.4,3.5,6.7c3,1.3,6.2,0.3,7.2-2.1l7.2-16.8
				C418.5,174,407.7,169.3,404.6,176.8z"/>
		</g>
		<g>
			<path class="st2" d="M416.2,143c1.9,2.4-0.4,5.3,0.5,8c1.3,3.9,9.2,7.4,14.6,4.1c5.3-3.2,4.5-10.7,4.4-11.7
				c-0.1-1-0.8-6.2-5.3-9.4c-5.9-4.2-15.2-2.2-17,1.7c-0.5,1.2-0.7,3.2,0.1,4.8C414.3,142,415.3,141.9,416.2,143z"/>
			<path class="st2" d="M410.5,137c0-1.7,1.4-3.2,3.2-3.2c1.7,0,3.2,1.4,3.2,3.2c0,1.7-1.4,3.2-3.2,3.2
				C411.9,140.2,410.5,138.8,410.5,137z"/>
			<path class="st2" d="M414.2,132.7c0-1.7,1.4-3.2,3.2-3.2c1.7,0,3.2,1.4,3.2,3.2c0,1.7-1.4,3.2-3.2,3.2
				C415.6,135.9,414.2,134.5,414.2,132.7z"/>
			<path class="st2" d="M420.3,131.8c0-1.7,1.4-3.2,3.2-3.2c1.7,0,3.2,1.4,3.2,3.2c0,1.7-1.4,3.2-3.2,3.2
				C421.7,134.9,420.3,133.5,420.3,131.8z"/>
			<path class="st2" d="M426.1,133.7c0-1.7,1.4-3.2,3.2-3.2c1.7,0,3.2,1.4,3.2,3.2c0,1.7-1.4,3.2-3.2,3.2
				C427.5,136.9,426.1,135.5,426.1,133.7z"/>
			<circle class="st2" cx="433.7" cy="138.1" r="3.2"/>
			<path class="st2" d="M432.6,143.9c0-1.7,1.4-3.2,3.2-3.2c1.7,0,3.2,1.4,3.2,3.2c0,1.7-1.4,3.2-3.2,3.2
				C434,147.1,432.6,145.6,432.6,143.9z"/>
			<path class="st2" d="M431.9,150.2c0-1.7,1.4-3.2,3.2-3.2c1.7,0,3.2,1.4,3.2,3.2s-1.4,3.2-3.2,3.2
				C433.3,153.4,431.9,152,431.9,150.2z"/>
			<path class="st2" d="M427.9,154.9c0-1.7,1.4-3.2,3.2-3.2c1.7,0,3.2,1.4,3.2,3.2s-1.4,3.2-3.2,3.2
				C429.3,158.1,427.9,156.7,427.9,154.9z"/>
		</g>
		<g>
			<path class="st0" d="M418.5,150.3c0.6,1.5,0.3,3.1-0.7,3.5c-1,0.4-2.3-0.5-3-2c-0.6-1.5-0.3-3.1,0.7-3.5
				C416.5,147.9,417.9,148.8,418.5,150.3z"/>
			<path class="st5" d="M417.6,150.7c0.3,0.8,0.2,1.6-0.3,1.8c-0.5,0.2-1.2-0.2-1.5-1c-0.3-0.8-0.2-1.6,0.3-1.8
				C416.6,149.4,417.3,149.9,417.6,150.7z"/>
		</g>
	</g>
	<g>
		<g>
			<path class="st1" d="M100.6,264.2c2,1,4.5,0.1,5.5-1.9c1-2,0.1-4.5-1.9-5.5c-2-1-4.5-0.1-5.5,1.9
				C97.7,260.8,98.5,263.3,100.6,264.2z"/>
			<path class="st1" d="M65.9,258.5c0,0,5.7,15.6,13.8,17.3c6.5,1.4,23.2-12.3,23.2-12.3l-3-4.3c0,0-13.6,10.2-19.1,6.6
				c-5-3.2-6.2-11-6.2-11L65.9,258.5z"/>
			<path class="st2" d="M72.3,246.5l7.2,16.8c1,2.4-0.5,5.4-3.5,6.7c-3,1.3-6.2,0.3-7.2-2.1l-7.2-16.8
				C58.4,243.7,69.1,239,72.3,246.5z"/>
		</g>
		<g>
			<g>
				<circle class="st1" cx="79.2" cy="223.1" r="12"/>
				<path class="st4" d="M96.1,314c-7.3-23.3-4.8-50.4-4.8-58.9c0-8.5-9.8-13.7-17.1-13.7c-7.3,0-16.8,4-16.8,12.2
					c0,8.2-8.1,39-8.1,39s-1,5.9,10.5,13.9C71.5,314.5,99.3,324.3,96.1,314z"/>
				<path class="st0" d="M81.7,233.6l-2.9,11.1c-0.4,1.6-2.9,2.3-5.6,1.6c-2.7-0.7-4.5-2.6-4.1-4.2L72,231L81.7,233.6z"/>
				<g>
					<path class="st2" d="M78.4,209.6c2.1,0,4.2,0.5,6,1.4c1.1,1.9,1.8,4.2,1.8,6.6c0,1.2-0.2,2.3-0.4,3.4c-0.4-0.1-0.8-0.2-1.3-0.2
						c-2.1,0-3.8,1.7-3.8,3.8c0,1.1,0.5,2.1,1.2,2.8c-2.3,2.1-5.5,3.4-8.9,3.4c-2.1,0-4.2-0.5-6-1.4c-1.1-1.9-1.8-4.2-1.8-6.6
						C65.3,215.5,71.2,209.6,78.4,209.6z"/>
				</g>
				<path class="st2" d="M81.9,227.4c0,0,10.2,9.9,1.4,21.3s-26.7,5.1-27.2-4.3c-0.5-9.4,11.1-10.1,9.7-18.1
					C64.4,218.4,81.9,227.4,81.9,227.4z"/>
			</g>
			<g>
				<path class="st0" d="M81,222.8c-0.8,1.9-0.4,3.8,0.8,4.3c1.2,0.5,2.8-0.6,3.6-2.4c0.8-1.9,0.4-3.8-0.8-4.3
					C83.4,219.9,81.8,220.9,81,222.8z"/>
				<path class="st5" d="M82.1,223.3c-0.4,0.9-0.2,1.9,0.4,2.2c0.6,0.3,1.5-0.3,1.9-1.2c0.4-0.9,0.2-1.9-0.4-2.2
					C83.3,221.7,82.5,222.3,82.1,223.3z"/>
			</g>
		</g>
		<g>
			<path class="st1" d="M123.4,277c2,1,4.5,0.1,5.5-1.9c1-2,0.1-4.5-1.9-5.5c-2-1-4.5-0.1-5.5,1.9C120.5,273.5,121.3,276,123.4,277z
				"/>
			<path class="st1" d="M85.2,265.8c0,0,3.9,16.5,13.1,19c6.4,1.7,27.5-8.5,27.5-8.5l-3-4.3c0,0-19.3,6.8-23.3,1.6
				c-4-5.1-5.5-11.4-5.5-11.4L85.2,265.8z"/>
			<path class="st4" d="M91.5,253.8l7.2,16.8c1,2.4-0.5,5.4-3.5,6.7c-3,1.3-6.2,0.3-7.2-2.1l-7.2-16.8
				C77.6,251,88.4,246.3,91.5,253.8z"/>
		</g>
		<g>
			<polygon class="st2" points="77,273.7 77,321 72.7,323.5 72.7,276.2 			"/>
			<polygon class="st3" points="77,273.7 52.1,259.3 47.8,261.8 72.7,276.2 			"/>
			<polygon class="st4" points="47.8,261.8 47.8,309.1 72.7,323.5 72.7,276.2 			"/>
		</g>
	</g>
	<g>
		<g>
			<path class="st0" d="M460.7,359.8l41.5,23.9c4.2,2.4,9.3,2.4,13.5,0l41.5-23.9c3.1-1.8,3.1-6.2,0-8l-41.5-23.9
				c-4.2-2.4-9.3-2.4-13.5,0l-41.5,23.9C457.6,353.6,457.6,358,460.7,359.8z"/>
			<linearGradient id="SVGID_3_" gradientUnits="userSpaceOnUse" x1="458.3495" y1="354.143" x2="559.3582" y2="354.143">
				<stop  offset="0.4072" style="stop-color:#FFFFFF"/>
				<stop  offset="0.6598" style="stop-color:#C8CFE4"/>
			</linearGradient>
			<path class="st11" d="M508.9,363.2L458.3,334v10.5c0,1.6,0.8,3.1,2.3,4l41.5,23.9c2.1,1.2,4.4,1.8,6.7,1.8s4.7-0.6,6.7-1.8
				l41.5-23.9c1.5-0.9,2.3-2.4,2.3-4V334L508.9,363.2z"/>
			<linearGradient id="SVGID_4_" gradientUnits="userSpaceOnUse" x1="458.3494" y1="334.0435" x2="559.3582" y2="334.0435">
				<stop  offset="1.923080e-03" style="stop-color:#23DBEA"/>
				<stop  offset="1" style="stop-color:#0C5FCD"/>
			</linearGradient>
			<path class="st12" d="M460.7,338l41.5,23.9c4.2,2.4,9.3,2.4,13.5,0l41.5-23.9c3.1-1.8,3.1-6.2,0-8l-41.5-23.9
				c-4.2-2.4-9.3-2.4-13.5,0l-41.5,23.9C457.6,331.8,457.6,336.3,460.7,338z"/>
		</g>
		<g>
			<path class="st2" d="M496.3,347.4L496.3,347.4c8.3,0.8,15.6-5.4,16.4-13.6l1-11.2l-30-2.7l-1,11.2
				C481.9,339.3,488,346.7,496.3,347.4z"/>
			<path class="st2" d="M450.7,374.3l-9.4,5.2c-2.1,1.2-2.8,3.8-1.7,5.9c1.2,2.1,3.8,2.8,5.9,1.7l9.4-5.2c2.1-1.2,2.8-3.8,1.7-5.9
				C455.4,373.9,452.8,373.1,450.7,374.3z"/>
			<g>
				<path class="st2" d="M489.5,338.1c0,0-20.5,5.4-25.4,13.4c-5.4,8.9-9.2,25.5-9.2,25.5c0,4.4-5.7,3.6-6.4,1.3
					c0,0,1.8-21.5,4.5-32.8c3.1-12.7,30.8-22.1,30.8-22.1L489.5,338.1z"/>
			</g>
			<path class="st2" d="M463.8,383l-9.4,5.2c-2.1,1.2-2.8,3.8-1.7,5.9c1.2,2.1,3.8,2.8,5.9,1.7l9.4-5.2c2.1-1.2,2.8-3.8,1.7-5.9
				C468.5,382.6,465.8,381.9,463.8,383z"/>
			<g>
				<path class="st2" d="M502.6,346.9c0,0-20.5,5.4-25.4,13.4c-5.4,8.9-9.2,25.5-9.2,25.5c0,4.4-5.7,3.6-6.4,1.3
					c0,0,1.8-21.5,4.5-32.8c3.1-12.7,30.8-22.1,30.8-22.1L502.6,346.9z"/>
			</g>
		</g>
		<path class="st4" d="M447,335.1l19.6-11.3c1.6-0.9,3.5-0.9,5.1,0l20.5,11.8c1.5,0.9,1.5,3,0,3.9l-18.8,10.8L447,335.1z"/>
		<g>
			<g>
				<path class="st1" d="M466.9,326.8c0.3,2.2-1.2,4.3-3.5,4.6c-2.2,0.3-4.3-1.2-4.6-3.5c-0.3-2.2,1.2-4.3,3.5-4.6
					C464.5,323,466.6,324.6,466.9,326.8z"/>
				<path class="st1" d="M490.4,294c0,0-4.9,9.7-7.9,15.3c-3.1,5.8-17,19.5-17,19.5l-3.2-4.1c0,0,10.5-14.6,13.4-21.4
					c2.4-5.5,5.9-13,5.9-13L490.4,294z"/>
				<path class="st2" d="M484.1,282l-7.2,16.8c-1,2.4,0.5,5.4,3.5,6.7c3,1.3,6.2,0.3,7.2-2.1l7.2-16.8
					C498,279.2,487.2,274.5,484.1,282z"/>
			</g>
			<path class="st3" d="M482,324c-0.5,5.9,6.9,10.4,16,10.9c9,0.5,16.3-4.2,16.8-9l0,0l2.1-32.2l0,0l0,0c0.5-9-6.3-16.8-15.4-17.4
				c-9-0.5-16.8,6.3-17.4,15.4l0,0l0,0L482,324z"/>
			<path class="st3" d="M508.7,281.9c0,2.6-3.8,4.7-8.4,4.7c-4.7,0-8.5-2-8.5-4.5c0-2.6,3.8-4.7,8.4-4.7
				C504.9,277.4,508.7,279.4,508.7,281.9z"/>
			<g>
				<path class="st1" d="M489.5,260.7c-1.3,6.1,2.6,12.2,8.7,13.5c6.1,1.3,12.2-2.6,13.5-8.7c1.3-6.1-2.6-12.2-8.7-13.5
					C496.9,250.7,490.8,254.6,489.5,260.7z"/>
				<path class="st1" d="M505.1,270.1l0.1,10.9c0,1.6-2.1,2.9-4.7,2.9c-2.6,0-4.8-1.2-4.8-2.8l-0.1-10.9L505.1,270.1z"/>
				<path class="st0" d="M510.3,266.4c-0.4,1.6-1.6,2.7-2.6,2.4c-1.1-0.3-1.6-1.8-1.2-3.4c0.4-1.6,1.6-2.7,2.6-2.4
					C510.1,263.3,510.7,264.8,510.3,266.4z"/>
				<path class="st2" d="M508.1,270c0.6,0.4,1.7-0.1,2.4-0.7c0.4-0.4,0.7-0.8,0.9-1.4c0.6-1.2,1.2-2.8,1.3-3.4
					c1.5-6.6-2.7-13.2-9.3-14.7c-6.1-1.4-12.5,2.6-14,7.2c-1.6,4.7,8,10.2,16.8,4.7c0,0,1.3,2.4,1.2,3.8
					C507.5,266.9,507.2,269.5,508.1,270z"/>
				<g>
					<path class="st0" d="M509.6,266.9c-0.4,1.6-1.6,2.6-2.7,2.4c-1.1-0.3-1.6-1.8-1.1-3.4c0.4-1.6,1.6-2.6,2.7-2.4
						C509.5,263.8,510,265.3,509.6,266.9z"/>
					<path class="st5" d="M508.7,266.6c-0.2,0.8-0.8,1.4-1.4,1.2s-0.8-0.9-0.6-1.7c0.2-0.8,0.8-1.4,1.4-1.2
						C508.6,265.1,508.9,265.8,508.7,266.6z"/>
				</g>
			</g>
			<g>
				<path class="st1" d="M482.9,340.6c-0.4,2.2-2.6,3.7-4.8,3.3c-2.2-0.4-3.7-2.6-3.3-4.8c0.4-2.2,2.6-3.7,4.8-3.3
					C481.8,336.2,483.3,338.4,482.9,340.6z"/>
				<path class="st1" d="M513.5,307.1c0,0-2.3,12.1-6.3,17.1c-4,5-26.3,17.9-26.3,17.9l-1.7-5c0,0,18.7-13.1,21.2-18.5
					c2.6-5.4,3.8-13.8,3.8-13.8L513.5,307.1z"/>
				<path class="st2" d="M505.4,296.3l-4.5,17.8c-0.6,2.6,1.4,5.3,4.5,6c3.1,0.8,6.2-0.6,6.8-3.2l4.5-17.8
					C518.6,291.4,507.3,288.4,505.4,296.3z"/>
			</g>
		</g>
		<path class="st9" d="M440.7,316.3l22.6,13l10.1,20.9L447,335.1l-8.2-17C438.2,316.9,439.5,315.7,440.7,316.3z"/>
	</g>
	<g>
		<g class="st13">
			<g class="st13">
				<defs>
					<path id="SVGID_5_" class="st13" d="M261.9,63.5l0.2,0.1c0.4,0.2,0.5,0.7,0.5,1.5c0,0.8-0.3,2.4-0.5,3
						c-0.4,1.4-1.1,3.2-3.9,4.9l-0.2-0.1c2.8-1.6,3.5-3.4,3.9-4.9c0.1-0.5,0.4-2.1,0.5-3C262.4,64.2,262.3,63.7,261.9,63.5z"/>
				</defs>
				<clipPath id="SVGID_6_">
					<use xlink:href="#SVGID_5_"  style="overflow:visible;"/>
				</clipPath>
				<g class="st14">
					<linearGradient id="SVGID_7_" gradientUnits="userSpaceOnUse" x1="258.0607" y1="72.112" x2="260.2928" y2="72.112">
						<stop  offset="1.141830e-03" style="stop-color:#B7FDFF"/>
						<stop  offset="0.9946" style="stop-color:#06ECC5"/>
					</linearGradient>
					<path class="st15" d="M258.3,72.9l-0.2-0.1c0.8-0.5,1.5-1,2-1.5l0.2,0.1C259.8,71.9,259.1,72.4,258.3,72.9"/>
					<path class="st16" d="M260.3,71.4l-0.2-0.1c0.1-0.1,0.3-0.3,0.4-0.4l0.2,0.1C260.6,71.2,260.4,71.3,260.3,71.4"/>
					<path class="st17" d="M260.7,71l-0.2-0.1c0.1-0.1,0.2-0.2,0.2-0.3l0.2,0.1C260.8,70.8,260.8,70.9,260.7,71"/>
					<path class="st18" d="M260.9,70.7l-0.2-0.1c0.1-0.1,0.1-0.2,0.2-0.3l0.2,0.1C261.1,70.5,261,70.6,260.9,70.7"/>
					<path class="st19" d="M261.1,70.5l-0.2-0.1c0.1-0.1,0.1-0.2,0.2-0.2l0.2,0.1C261.2,70.3,261.2,70.4,261.1,70.5"/>
					<path class="st20" d="M261.3,70.2l-0.2-0.1c0-0.1,0.1-0.1,0.1-0.2l0.2,0.1C261.4,70.1,261.3,70.2,261.3,70.2"/>
					<path class="st21" d="M261.4,70l-0.2-0.1c0-0.1,0.1-0.1,0.1-0.2l0.2,0.1C261.5,69.9,261.4,69.9,261.4,70"/>
					<path class="st22" d="M261.5,69.8l-0.2-0.1c0-0.1,0.1-0.2,0.1-0.2l0.2,0.1C261.6,69.6,261.6,69.7,261.5,69.8"/>
					<path class="st23" d="M261.6,69.6l-0.2-0.1c0-0.1,0.1-0.2,0.1-0.2l0.2,0.1C261.7,69.4,261.7,69.5,261.6,69.6"/>
					<path class="st24" d="M261.7,69.3l-0.2-0.1c0-0.1,0.1-0.2,0.1-0.3l0.2,0.1C261.8,69.1,261.8,69.2,261.7,69.3"/>
					<path class="st25" d="M261.9,69.1l-0.2-0.1c0-0.1,0.1-0.2,0.1-0.3l0.2,0.1C261.9,68.8,261.9,68.9,261.9,69.1"/>
					<path class="st26" d="M262,68.7l-0.2-0.1c0-0.1,0.1-0.3,0.1-0.4l0.2,0.1C262.1,68.5,262,68.6,262,68.7"/>
					<path class="st27" d="M262.1,68.3l-0.2-0.1c0-0.1,0-0.2,0.1-0.3c0-0.1,0.1-0.2,0.1-0.4l0.2,0.1c0,0.2-0.1,0.3-0.1,0.4
						C262.1,68.2,262.1,68.2,262.1,68.3"/>
					<path class="st28" d="M262.2,67.7l-0.2-0.1c0.1-0.4,0.2-1.1,0.3-1.7l0.2,0.1C262.5,66.6,262.3,67.2,262.2,67.7"/>
					<path class="st29" d="M262.5,66l-0.2-0.1c0-0.3,0.1-0.7,0.1-0.9c0-0.8-0.1-1.3-0.5-1.5l0.2,0.1c0.4,0.2,0.5,0.7,0.5,1.5
						C262.6,65.4,262.6,65.7,262.5,66"/>
				</g>
			</g>
			<g>
				<polygon class="st30" points="253.6,75.6 253.4,75.5 258.1,72.8 258.3,72.9 				"/>
			</g>
			<g>
				<polygon class="st31" points="253.2,78.7 253,78.6 253.4,75.5 253.6,75.6 				"/>
			</g>
			<g class="st13">
				<defs>
					<path id="SVGID_8_" class="st13" d="M264.3,59.9l0.2,0.1c-0.8-0.5-2.1-0.2-4,0.9l-0.2-0.1C262.3,59.6,263.5,59.4,264.3,59.9z"
						/>
				</defs>
				<clipPath id="SVGID_9_">
					<use xlink:href="#SVGID_8_"  style="overflow:visible;"/>
				</clipPath>
				<g class="st32">
					<linearGradient id="SVGID_10_" gradientUnits="userSpaceOnUse" x1="260.3168" y1="60.4603" x2="261.923" y2="60.4603">
						<stop  offset="1.141830e-03" style="stop-color:#B7FDFF"/>
						<stop  offset="0.9946" style="stop-color:#06ECC5"/>
					</linearGradient>
					<path class="st33" d="M260.5,60.9l-0.2-0.1c0.5-0.3,1-0.5,1.4-0.7l0.2,0.1C261.5,60.3,261,60.6,260.5,60.9"/>
					<path class="st16" d="M261.9,60.2l-0.2-0.1c0.3-0.1,0.5-0.2,0.8-0.3l0.2,0.1C262.5,60,262.2,60.1,261.9,60.2"/>
					<path class="st17" d="M262.7,59.9l-0.2-0.1c0.2,0,0.3-0.1,0.5-0.1l0.2,0.1C263,59.8,262.9,59.9,262.7,59.9"/>
					<path class="st18" d="M263.2,59.8l-0.2-0.1c0.1,0,0.2,0,0.3,0l0.2,0.1C263.4,59.8,263.3,59.8,263.2,59.8"/>
					<path class="st19" d="M263.5,59.8l-0.2-0.1c0.1,0,0.2,0,0.3,0l0.2,0.1C263.7,59.8,263.6,59.8,263.5,59.8"/>
					<path class="st20" d="M263.8,59.8l-0.2-0.1C263.6,59.6,263.7,59.6,263.8,59.8l0.2,0C263.9,59.8,263.9,59.8,263.8,59.8"/>
					<path class="st21" d="M264,59.8l-0.2-0.1C263.9,59.7,263.9,59.7,264,59.8l0.2,0C264.1,59.8,264.1,59.8,264,59.8"/>
					<path class="st22" d="M264.2,59.8l-0.2-0.1C264,59.7,264.1,59.7,264.2,59.8l0.2,0.1C264.3,59.9,264.3,59.8,264.2,59.8"/>
					<path class="st23" d="M264.4,59.9l-0.2-0.1C264.2,59.8,264.3,59.8,264.4,59.9l0.2,0.1C264.5,59.9,264.4,59.9,264.4,59.9"/>
					<path class="st24" d="M264.5,60l-0.2-0.1c0,0,0,0,0,0L264.5,60C264.5,60,264.5,60,264.5,60"/>
				</g>
			</g>
			<g>
				<polygon class="st30" points="253,70.6 252.8,70.5 258.2,67.4 258.4,67.5 				"/>
			</g>
			<g>
				<path class="st3" d="M258.2,68.8c-0.1,0.7-0.3,1.9-1.7,2.7l-5.4,3.1c0,0,0.1-0.4,0.2-1.3c0.1-0.7,0.3-1.9,1.7-2.7l5.4-3.1
					C258.4,67.5,258.3,67.8,258.2,68.8z"/>
			</g>
			<g class="st13">
				<defs>
					<path id="SVGID_11_" class="st13" d="M251,74.5l-0.2-0.1c0,0,0.1-0.4,0.2-1.3c0.1-0.7,0.3-1.9,1.7-2.7l0.2,0.1
						c-1.4,0.8-1.6,2-1.7,2.7C251.1,74.2,251,74.5,251,74.5z"/>
				</defs>
				<clipPath id="SVGID_12_">
					<use xlink:href="#SVGID_11_"  style="overflow:visible;"/>
				</clipPath>
				<g class="st34">
					<path class="st28" d="M251,74.5l-0.2-0.1c0,0,0.1-0.4,0.2-1.3c0-0.1,0-0.2,0.1-0.4l0.2,0.1c0,0.1,0,0.2-0.1,0.4
						C251.1,74.2,251,74.5,251,74.5"/>
					<path class="st27" d="M251.3,72.9l-0.2-0.1c0-0.1,0-0.2,0.1-0.3l0.2,0.1C251.4,72.7,251.4,72.8,251.3,72.9"/>
					<path class="st26" d="M251.4,72.6l-0.2-0.1c0-0.1,0-0.1,0.1-0.2l0.2,0.1C251.4,72.5,251.4,72.5,251.4,72.6"/>
					<path class="st25" d="M251.5,72.4l-0.2-0.1c0-0.1,0-0.1,0.1-0.2l0.2,0.1C251.5,72.3,251.5,72.4,251.5,72.4"/>
					<path class="st24" d="M251.5,72.3l-0.2-0.1c0,0,0-0.1,0.1-0.1l0.2,0.1C251.6,72.2,251.5,72.2,251.5,72.3"/>
					<path class="st23" d="M251.6,72.1l-0.2-0.1c0,0,0-0.1,0.1-0.1l0.2,0.1C251.6,72.1,251.6,72.1,251.6,72.1"/>
					<path class="st22" d="M251.6,72l-0.2-0.1c0,0,0-0.1,0.1-0.1l0.2,0.1C251.7,71.9,251.6,72,251.6,72"/>
					<path class="st21" d="M251.7,71.9l-0.2-0.1c0,0,0-0.1,0.1-0.1l0.2,0.1C251.7,71.8,251.7,71.9,251.7,71.9"/>
					<path class="st20" d="M251.7,71.8l-0.2-0.1c0,0,0-0.1,0.1-0.1l0.2,0.1C251.8,71.7,251.8,71.8,251.7,71.8"/>
					<path class="st19" d="M251.8,71.7l-0.2-0.1c0,0,0-0.1,0.1-0.1l0.2,0.1C251.9,71.6,251.8,71.7,251.8,71.7"/>
					<path class="st18" d="M251.9,71.6l-0.2-0.1c0,0,0.1-0.1,0.1-0.1l0.2,0.1C251.9,71.5,251.9,71.5,251.9,71.6"/>
					<path class="st17" d="M252,71.5l-0.2-0.1c0,0,0.1-0.1,0.1-0.1l0.2,0.1C252,71.4,252,71.4,252,71.5"/>
					<path class="st16" d="M252.1,71.3l-0.2-0.1c0.1-0.1,0.1-0.1,0.2-0.2l0.2,0.1C252.2,71.2,252.1,71.3,252.1,71.3"/>
					<linearGradient id="SVGID_13_" gradientUnits="userSpaceOnUse" x1="252.0242" y1="70.82" x2="252.9736" y2="70.82">
						<stop  offset="1.141830e-03" style="stop-color:#B7FDFF"/>
						<stop  offset="0.9946" style="stop-color:#06ECC5"/>
					</linearGradient>
					<path class="st35" d="M252.2,71.2L252,71c0.2-0.2,0.4-0.4,0.7-0.6l0.2,0.1C252.7,70.8,252.4,71,252.2,71.2"/>
				</g>
			</g>
			<g>
				<polygon class="st31" points="254.8,67 254.6,66.9 255,63.8 255.2,63.9 				"/>
			</g>
			<g>
				<path class="st3" d="M260.5,60.9c4.6-2.7,5.5-0.2,4.8,4.2c-0.4,3-1.5,5.8-3.4,7.8c-0.8,0.9-1.6,1.6-3.5,2.7l-5.3,3l0.4-3.1
					l4.6-2.7c2.8-1.6,3.5-3.4,3.9-4.9c0.1-0.5,0.4-2.1,0.5-3c0-1.6-0.7-2.2-3-0.9l-4.8,2.7l0.4-3.1L260.5,60.9z"/>
			</g>
			<g>
				<polygon class="st30" points="255.2,63.9 255,63.8 260.3,60.7 260.5,60.9 				"/>
			</g>
		</g>
	</g>
	<g>
		<g class="st13">
			<g class="st13">
				<defs>
					<path id="SVGID_14_" class="st13" d="M137.7,133.9l0.2,0.1c0.4,0.2,0.5,0.7,0.5,1.5c0,0.8-0.3,2.4-0.5,3
						c-0.4,1.4-1.1,3.2-3.9,4.9l-0.2-0.1c2.8-1.6,3.5-3.4,3.9-4.9c0.1-0.5,0.4-2.1,0.5-3C138.3,134.6,138.1,134.1,137.7,133.9z"/>
				</defs>
				<clipPath id="SVGID_15_">
					<use xlink:href="#SVGID_14_"  style="overflow:visible;"/>
				</clipPath>
				<g class="st36">
					<linearGradient id="SVGID_16_" gradientUnits="userSpaceOnUse" x1="133.9232" y1="142.5019" x2="136.1553" y2="142.5019">
						<stop  offset="1.141830e-03" style="stop-color:#B7FDFF"/>
						<stop  offset="0.9946" style="stop-color:#06ECC5"/>
					</linearGradient>
					<path class="st37" d="M134.1,143.3l-0.2-0.1c0.8-0.5,1.5-1,2-1.5l0.2,0.1C135.6,142.3,135,142.8,134.1,143.3"/>
					<path class="st16" d="M136.2,141.8l-0.2-0.1c0.1-0.1,0.3-0.3,0.4-0.4l0.2,0.1C136.4,141.5,136.3,141.7,136.2,141.8"/>
					<path class="st17" d="M136.5,141.4l-0.2-0.1c0.1-0.1,0.2-0.2,0.2-0.3l0.2,0.1C136.7,141.2,136.6,141.3,136.5,141.4"/>
					<path class="st18" d="M136.8,141.1l-0.2-0.1c0.1-0.1,0.1-0.2,0.2-0.3l0.2,0.1C136.9,140.9,136.9,141,136.8,141.1"/>
					<path class="st19" d="M137,140.8l-0.2-0.1c0.1-0.1,0.1-0.2,0.2-0.2l0.2,0.1C137.1,140.7,137,140.8,137,140.8"/>
					<path class="st20" d="M137.1,140.6l-0.2-0.1c0-0.1,0.1-0.1,0.1-0.2l0.2,0.1C137.2,140.5,137.2,140.5,137.1,140.6"/>
					<path class="st21" d="M137.3,140.4l-0.2-0.1c0-0.1,0.1-0.1,0.1-0.2l0.2,0.1C137.3,140.2,137.3,140.3,137.3,140.4"/>
					<path class="st22" d="M137.4,140.2l-0.2-0.1c0-0.1,0.1-0.2,0.1-0.2l0.2,0.1C137.5,140,137.4,140.1,137.4,140.2"/>
					<path class="st23" d="M137.5,139.9l-0.2-0.1c0-0.1,0.1-0.2,0.1-0.2l0.2,0.1C137.6,139.8,137.5,139.9,137.5,139.9"/>
					<path class="st24" d="M137.6,139.7l-0.2-0.1c0-0.1,0.1-0.2,0.1-0.3l0.2,0.1C137.7,139.5,137.7,139.6,137.6,139.7"/>
					<path class="st25" d="M137.7,139.4l-0.2-0.1c0-0.1,0.1-0.2,0.1-0.3l0.2,0.1C137.8,139.2,137.8,139.3,137.7,139.4"/>
					<path class="st26" d="M137.8,139.1l-0.2-0.1c0-0.1,0.1-0.3,0.1-0.4l0.2,0.1C137.9,138.9,137.9,139,137.8,139.1"/>
					<path class="st27" d="M138,138.7l-0.2-0.1c0-0.1,0-0.2,0.1-0.3c0-0.1,0.1-0.2,0.1-0.4l0.2,0.1c0,0.2-0.1,0.3-0.1,0.4
						C138,138.5,138,138.6,138,138.7"/>
					<path class="st28" d="M138.1,138.1l-0.2-0.1c0.1-0.4,0.2-1.1,0.3-1.7l0.2,0.1C138.3,137,138.2,137.6,138.1,138.1"/>
					<path class="st29" d="M138.4,136.4l-0.2-0.1c0-0.3,0.1-0.7,0.1-0.9c0-0.8-0.1-1.3-0.5-1.5l0.2,0.1c0.4,0.2,0.5,0.7,0.5,1.5
						C138.5,135.7,138.4,136.1,138.4,136.4"/>
				</g>
			</g>
			<g>
				<polygon class="st30" points="129.5,146 129.3,145.9 133.9,143.2 134.1,143.3 				"/>
			</g>
			<g>
				<polygon class="st31" points="129.1,149.1 128.9,148.9 129.3,145.9 129.5,146 				"/>
			</g>
			<g class="st13">
				<defs>
					<path id="SVGID_17_" class="st13" d="M140.2,130.2l0.2,0.1c-0.8-0.5-2.1-0.2-4,0.9l-0.2-0.1C138.1,130,139.4,129.8,140.2,130.2
						z"/>
				</defs>
				<clipPath id="SVGID_18_">
					<use xlink:href="#SVGID_17_"  style="overflow:visible;"/>
				</clipPath>
				<g class="st38">
					<linearGradient id="SVGID_19_" gradientUnits="userSpaceOnUse" x1="136.1792" y1="130.8502" x2="137.7855" y2="130.8502">
						<stop  offset="1.141830e-03" style="stop-color:#B7FDFF"/>
						<stop  offset="0.9946" style="stop-color:#06ECC5"/>
					</linearGradient>
					<path class="st39" d="M136.4,131.3l-0.2-0.1c0.5-0.3,1-0.5,1.4-0.7l0.2,0.1C137.4,130.7,136.9,131,136.4,131.3"/>
					<path class="st16" d="M137.8,130.6l-0.2-0.1c0.3-0.1,0.5-0.2,0.8-0.3l0.2,0.1C138.3,130.4,138.1,130.4,137.8,130.6"/>
					<path class="st17" d="M138.6,130.3l-0.2-0.1c0.2,0,0.3-0.1,0.5-0.1l0.2,0.1C138.9,130.2,138.7,130.2,138.6,130.3"/>
					<path class="st18" d="M139,130.2l-0.2-0.1c0.1,0,0.2,0,0.3,0l0.2,0.1C139.3,130.2,139.2,130.2,139,130.2"/>
					<path class="st19" d="M139.4,130.1l-0.2-0.1c0.1,0,0.2,0,0.3,0l0.2,0.1C139.6,130.1,139.5,130.1,139.4,130.1"/>
					<path class="st20" d="M139.6,130.1l-0.2-0.1C139.5,130,139.6,130,139.6,130.1l0.2,0C139.8,130.2,139.7,130.2,139.6,130.1"/>
					<path class="st21" d="M139.9,130.2l-0.2-0.1C139.7,130.1,139.8,130.1,139.9,130.2l0.2,0C140,130.2,139.9,130.2,139.9,130.2"/>
					<path class="st22" d="M140.1,130.2l-0.2-0.1C139.9,130.1,140,130.1,140.1,130.2l0.2,0.1C140.2,130.3,140.1,130.2,140.1,130.2"
						/>
					<path class="st23" d="M140.2,130.3l-0.2-0.1C140.1,130.2,140.1,130.2,140.2,130.3l0.2,0.1C140.3,130.3,140.3,130.3,140.2,130.3
						"/>
					<path class="st24" d="M140.4,130.4l-0.2-0.1c0,0,0,0,0,0L140.4,130.4C140.4,130.4,140.4,130.4,140.4,130.4"/>
				</g>
			</g>
			<g>
				<polygon class="st30" points="128.8,141 128.6,140.9 134,137.7 134.3,137.9 				"/>
			</g>
			<g>
				<path class="st3" d="M134,139.2c-0.1,0.7-0.3,1.9-1.7,2.7l-5.4,3.1c0,0,0.1-0.4,0.2-1.3c0.1-0.7,0.3-1.9,1.7-2.7l5.4-3.1
					C134.2,137.9,134.2,138.2,134,139.2z"/>
			</g>
			<g class="st13">
				<defs>
					<path id="SVGID_20_" class="st13" d="M126.9,144.9l-0.2-0.1c0,0,0.1-0.4,0.2-1.3c0.1-0.7,0.3-1.9,1.7-2.7l0.2,0.1
						c-1.4,0.8-1.6,2-1.7,2.7C127,144.6,126.9,144.9,126.9,144.9z"/>
				</defs>
				<clipPath id="SVGID_21_">
					<use xlink:href="#SVGID_20_"  style="overflow:visible;"/>
				</clipPath>
				<g class="st40">
					<path class="st28" d="M126.9,144.9l-0.2-0.1c0,0,0.1-0.4,0.2-1.3c0-0.1,0-0.2,0.1-0.4l0.2,0.1c0,0.1,0,0.2-0.1,0.4
						C127,144.6,126.9,144.9,126.9,144.9"/>
					<path class="st27" d="M127.2,143.3l-0.2-0.1c0-0.1,0-0.2,0.1-0.3l0.2,0.1C127.2,143.1,127.2,143.2,127.2,143.3"/>
					<path class="st26" d="M127.3,143l-0.2-0.1c0-0.1,0-0.1,0.1-0.2l0.2,0.1C127.3,142.9,127.3,142.9,127.3,143"/>
					<path class="st25" d="M127.3,142.8l-0.2-0.1c0-0.1,0-0.1,0.1-0.2l0.2,0.1C127.4,142.7,127.3,142.8,127.3,142.8"/>
					<path class="st24" d="M127.4,142.7l-0.2-0.1c0,0,0-0.1,0.1-0.1l0.2,0.1C127.4,142.6,127.4,142.6,127.4,142.7"/>
					<path class="st23" d="M127.4,142.5l-0.2-0.1c0,0,0-0.1,0.1-0.1l0.2,0.1C127.5,142.4,127.5,142.5,127.4,142.5"/>
					<path class="st22" d="M127.5,142.4l-0.2-0.1c0,0,0-0.1,0.1-0.1l0.2,0.1C127.5,142.3,127.5,142.4,127.5,142.4"/>
					<path class="st21" d="M127.5,142.3l-0.2-0.1c0,0,0-0.1,0.1-0.1l0.2,0.1C127.6,142.2,127.6,142.3,127.5,142.3"/>
					<path class="st20" d="M127.6,142.2l-0.2-0.1c0,0,0-0.1,0.1-0.1l0.2,0.1C127.6,142.1,127.6,142.2,127.6,142.2"/>
					<path class="st19" d="M127.7,142.1l-0.2-0.1c0,0,0-0.1,0.1-0.1l0.2,0.1C127.7,142,127.7,142,127.7,142.1"/>
					<path class="st18" d="M127.7,142l-0.2-0.1c0,0,0.1-0.1,0.1-0.1l0.2,0.1C127.8,141.9,127.8,141.9,127.7,142"/>
					<path class="st17" d="M127.8,141.9l-0.2-0.1c0,0,0.1-0.1,0.1-0.1l0.2,0.1C127.9,141.8,127.9,141.8,127.8,141.9"/>
					<path class="st16" d="M127.9,141.7l-0.2-0.1c0.1-0.1,0.1-0.1,0.2-0.2l0.2,0.1C128,141.6,128,141.7,127.9,141.7"/>
					<linearGradient id="SVGID_22_" gradientUnits="userSpaceOnUse" x1="127.8867" y1="141.2099" x2="128.836" y2="141.2099">
						<stop  offset="1.141830e-03" style="stop-color:#B7FDFF"/>
						<stop  offset="0.9946" style="stop-color:#06ECC5"/>
					</linearGradient>
					<path class="st41" d="M128.1,141.5l-0.2-0.1c0.2-0.2,0.4-0.4,0.7-0.6l0.2,0.1C128.5,141.2,128.3,141.4,128.1,141.5"/>
				</g>
			</g>
			<g>
				<polygon class="st31" points="130.7,137.4 130.5,137.3 130.9,134.2 131.1,134.3 				"/>
			</g>
			<g>
				<path class="st3" d="M136.4,131.3c4.6-2.7,5.5-0.2,4.8,4.2c-0.4,3-1.5,5.8-3.4,7.8c-0.8,0.9-1.6,1.6-3.5,2.7l-5.3,3l0.4-3.1
					l4.6-2.7c2.8-1.6,3.5-3.4,3.9-4.9c0.1-0.5,0.4-2.1,0.5-3c0-1.6-0.7-2.2-3-0.9l-4.8,2.7l0.4-3.1L136.4,131.3z"/>
			</g>
			<g>
				<polygon class="st30" points="131.1,134.3 130.9,134.2 136.2,131.1 136.4,131.3 				"/>
			</g>
		</g>
	</g>
	<g>
		<g>
			<path class="st3" d="M366,57.3c-0.1,0.5-0.3,1.5-1.7,0.7l-5.4-3.1c0,0,0.1-0.3,0.2-1c0.1-0.5,0.3-1.5,1.7-0.7l5.4,3.1
				C366.3,56.3,366.2,56.5,366,57.3z"/>
		</g>
		<g>
			<path class="st3" d="M368.4,52.2c4.6,2.7,5.4,6,4.7,9.7c-0.4,2.5-1.5,3.9-3.4,3.8c-0.8,0-1.6-0.2-3.5-1.3l-5.2-3l0.4-2.5l4.6,2.7
				c2.8,1.6,3.5,0.7,3.9-0.3c0.1-0.4,0.4-1.6,0.5-2.4c0-1.6-0.7-3-3-4.3l-4.7-2.7l0.4-2.5L368.4,52.2z"/>
		</g>
	</g>
</g>
</svg>
