<?xml version="1.0" encoding="utf-8"?>
<!-- Designed by Vexels.com - 2020 All Rights Reserved - https://vexels.com/terms-and-conditions/  -->
<svg version="1.1" id="Layer_1" xmlns="http://www.w3.org/2000/svg" xmlns:xlink="http://www.w3.org/1999/xlink" x="0px" y="0px"
	 viewBox="0 0 1200 1200" enable-background="new 0 0 1200 1200" xml:space="preserve">
<g>
	<path fill="#D3E4ED" d="M149.628,908.355l-6.944,2.687c-1.699,0.657-1.892,2.984-0.324,3.912l387.459,229.275
		c12.925,7.644,28.974,7.699,41.952,0.143l490.641-285.674c2.126-1.238,2.164-4.296,0.069-5.587l-22.578-13.91l-856.325,52.541
		L149.628,908.355z"/>
	<g>
		<path fill="#969593" d="M651.727,58.67c-3.288-1.595-7.323-1.7-10.957,0.354L178.184,319.631
			c-18.63,10.521-30.152,30.26-30.152,51.657v518.037c0,0.662,0.331,1.21,0.809,1.541l-12.085-7.891
			c-0.055-0.031-0.105-0.066-0.152-0.101H136.6c-0.374-0.276-0.63-0.716-0.63-1.249V363.032c0-21.397,11.521-41.136,30.152-51.657
			L626.769,51.862c4.105-2.319,9.337-2.529,12.811-0.308h0.008l0.055,0.039C639.907,51.765,651.727,58.67,651.727,58.67z"/>
		<path fill="#31353E" d="M651.881,604.181L150.827,890.97c-1.254,0.694-2.793-0.212-2.793-1.646V371.287
			c0-21.395,11.52-41.133,30.15-51.655L640.771,59.024c7.913-4.469,17.7,1.29,17.635,10.378l-3.142,529.086
			C655.247,600.857,653.954,603.033,651.881,604.181z"/>
		<path fill="#019798" d="M640.986,580.342L165.453,852.996l2.425-477.549c0-20.089,10.817-38.621,28.308-48.5L629.785,82.711
			c7.43-4.196,16.619,1.211,16.558,9.744L640.986,580.342z"/>
	</g>
	<path fill="#969593" d="M1055.259,827.824v16.054c0,0-0.066,0.222-0.226,0.56c-0.374,1.292-1.222,2.463-2.545,3.226
		l-484.71,278.649c-11.665,6.704-26.023,6.673-37.657-0.086L151.616,906.929c-0.49-0.288-0.864-0.669-1.124-1.109
		c-0.257-0.436-0.401-0.93-0.424-1.424v-0.004c-0.008-0.105-0.008-0.214,0-0.323l-0.004-14.813c0.027,1.019,0.545,2.027,1.552,2.615
		l378.505,219.299c11.634,6.759,25.992,6.79,37.657,0.086l484.71-278.649C1054.332,831.547,1055.259,829.684,1055.259,827.824z"/>
	<path fill="#E8E5DE" d="M151.629,886.46l497.845-285.987c5.319-3.055,11.861-3.049,17.174,0.015l385.848,222.558
		c3.684,2.125,3.68,7.442-0.007,9.562l-484.712,278.648c-11.665,6.706-26.022,6.673-37.656-0.085L151.616,891.871
		C149.536,890.663,149.544,887.658,151.629,886.46z"/>
	<path fill="#969593" d="M217.162,878.537l429.154-247.084c4.403-2.529,9.82-2.525,14.218,0.012l166.538,95.037
		c3.05,1.759,3.047,6.162-0.006,7.916L408.786,975.427c-9.657,5.552-21.544,5.525-31.175-0.071l-160.459-92.339
		C215.43,882.017,215.436,879.529,217.162,878.537z"/>
	<path fill="#969593" d="M581.117,900.192l156.432-89.432c3.622-2.08,8.077-2.077,11.695,0.01l136.976,78.167
		c2.508,1.447,2.506,5.068-0.005,6.511l-147.49,84.434c-7.943,4.566-17.719,4.544-25.642-0.058l-131.976-75.948
		C579.692,903.054,579.697,901.008,581.117,900.192z"/>
</g>
</svg>
